# This file uses centimeters as units for non-parametric coordinates.

mtllib Rock.mtl
g default
v -0.879800 -0.661299 1.356090
v 1.622206 -0.661299 1.591987
v 0.552591 4.846437 -0.581909
v -1.066812 -0.661299 -1.595382
v 1.615001 -0.661299 -1.913598
v -0.454135 5.210421 0.038208
v -1.242867 -0.661299 -0.012605
v 2.225007 -0.661299 -0.028609
v 0.230922 -0.661299 1.971362
v 0.107935 -0.661299 -1.923742
v -0.047626 -0.661299 -0.012605
v -0.768926 1.740016 0.998126
v -0.967829 1.740016 -0.006734
v -0.648639 1.740016 -0.872656
v 0.090535 1.740016 -1.241859
v 1.068579 1.740015 -1.304054
v 1.393556 1.740016 -0.022032
v 1.134416 1.740016 0.972455
v -0.145350 1.740016 1.161162
v -1.281483 1.431077 -0.006734
v -2.002196 -0.661299 -0.012605
v -1.803292 -0.661299 0.983733
v -1.642096 -0.661299 -0.917052
v -0.208521 4.842609 -0.589427
v -0.522396 3.313718 -0.642333
v -0.470028 4.922329 -0.266041
v 0.193805 5.015882 -0.635637
v 0.088687 5.125653 -0.542612
v 0.080361 4.274292 -0.859476
v 0.023321 5.000846 -0.623017
v 0.629170 5.054322 0.154307
v 0.611520 5.049145 -0.156048
v 0.537806 5.180320 0.007229
v 0.899449 4.295304 -0.015398
v -0.194216 4.863394 0.687247
v 0.112994 4.875585 0.720077
v -0.065001 4.991389 0.597365
v -0.100411 4.089877 0.924549
v 0.609295 4.859241 0.465065
v 0.686384 4.061053 0.665796
v 0.476808 4.811400 0.613298
v -0.420454 4.851213 0.552153
v -0.487078 4.940159 0.384666
v -0.567231 4.074825 0.624531
v -0.154168 5.386763 -0.025836
v -0.002661 5.390625 -0.174831
v 0.109241 5.374152 -0.052624
v -0.056621 5.371244 0.094615
v -1.171131 1.434563 0.802091
v -1.299271 1.357328 0.550876
v -1.429723 0.834234 0.798493
v -0.758220 1.654270 -0.786701
v -1.106284 1.484354 -0.310444
v -1.304621 0.333547 -0.811119
vt 0.000000 0.018521
vt 0.171549 0.000000
vt 0.170480 0.254490
vt 0.067895 0.261177
vt 0.302520 0.263346
vt 0.368343 0.019335
vt 0.169126 0.514482
vt 0.153165 0.594478
vt 0.120716 0.576603
vt 0.096811 0.496740
vt 0.184475 0.594338
vt 0.229097 0.576441
vt 0.168342 0.609677
vt 0.100322 0.575388
vt 0.923314 0.669752
vt 0.949949 0.584043
vt 0.942053 0.662694
vt 0.888203 0.695815
vt 0.893840 0.343968
vt 0.997108 0.354049
vt 0.799786 0.350147
vt 0.859082 0.665729
vt 0.822170 0.506257
vt 0.896893 0.298902
vt 0.951693 0.292493
vt 0.977009 0.305819
vt 0.810824 0.338194
vt 0.864761 0.310708
vt 0.867626 0.725203
vt 0.846491 0.730079
vt 0.807259 0.703634
vt 0.803065 0.687590
vt 0.817578 0.662988
vt 0.977820 0.240027
vt 0.898637 0.078786
vt 1.000000 0.086563
vt 0.714097 0.110539
vt 0.801372 0.090101
vt 0.811043 0.195413
vt 0.362647 0.892072
vt 0.362647 0.772746
vt 0.560715 0.744938
vt 0.499290 0.855826
vt 0.204631 0.874496
vt 0.171850 0.757216
vt 0.361049 0.545859
vt 0.522840 0.606040
vt 0.462116 0.948022
vt 0.362647 0.967880
vt 0.172862 0.606759
vt 0.272352 0.931929
vt 0.349741 0.301198
vt 0.366680 0.314623
vt 0.356398 0.327788
vt 0.339240 0.312592
vt 0.353884 0.239113
vt 0.373053 0.223844
vt 0.410731 0.232190
vt 0.423525 0.248252
vt 0.423142 0.285118
vt 0.412431 0.303690
vt 0.395085 0.376710
vt 0.379929 0.367388
vt 0.426482 0.321168
vt 0.434192 0.368117
vt 0.306874 0.250913
vt 0.315384 0.232231
vt 0.340639 0.223515
vt 0.308390 0.295424
vt 0.462546 0.036038
vt 0.588105 0.025560
vt 0.537442 0.277617
vt 0.472766 0.278057
vt 0.666590 0.287662
vt 0.730727 0.044479
vt 0.531949 0.513718
vt 0.517558 0.592971
vt 0.491158 0.593355
vt 0.476801 0.514604
vt 0.425917 0.250870
vt 0.398661 0.191600
vt 0.363339 0.040780
vt 0.548665 0.595102
vt 0.614115 0.518484
vt 0.587148 0.592550
vt 0.528908 0.609827
vt 0.611182 0.639144
vt 0.693614 0.646459
vt 0.702301 0.896139
vt 0.580913 0.890790
vt 0.623779 0.480584
vt 0.663143 0.329320
vt 0.687950 0.314826
vt 0.694712 0.390712
vt 0.791718 0.646710
vt 0.852703 0.892117
vt 0.693920 0.299741
vt 0.705337 0.313562
vt 0.743518 0.328245
vn -0.401539 0.195443 0.894745
vn -0.401539 0.195443 0.894745
vn -0.407202 0.176822 0.896058
vn -0.407565 0.175606 0.896132
vn -0.113259 0.342888 0.932524
vn -0.113259 0.342888 0.932524
vn -0.113259 0.342888 0.932524
vn -0.113259 0.342888 0.932524
vn -0.396669 0.229202 -0.888887
vn -0.392595 0.232952 -0.889721
vn -0.327687 0.290297 -0.899082
vn -0.327687 0.290297 -0.899082
vn 0.000000 -1.000000 0.000000
vn 0.000000 -1.000000 0.000000
vn 0.000000 -1.000000 0.000000
vn 0.000000 -1.000000 0.000000
vn 0.909476 0.288084 0.299767
vn 0.909476 0.288084 0.299767
vn 0.920488 0.252918 0.297883
vn 0.920003 0.254563 0.297979
vn 0.000000 -1.000000 -0.000000
vn 0.000000 -1.000000 -0.000000
vn 0.000000 -1.000000 -0.000000
vn 0.000000 -1.000000 -0.000000
vn 0.924483 0.264985 -0.274071
vn 0.925286 0.261801 -0.274420
vn 0.915685 0.297390 -0.270334
vn 0.915685 0.297390 -0.270334
vn 0.210737 0.240444 0.947511
vn 0.212619 0.229458 0.949812
vn 0.197631 0.312188 0.929236
vn 0.197631 0.312188 0.929236
vn 0.923565 0.378899 -0.058844
vn 0.923565 0.378900 -0.058844
vn 0.923565 0.378899 -0.058844
vn 0.923565 0.378899 -0.058844
vn -0.020235 0.257406 -0.966091
vn 0.023216 0.233273 -0.972134
vn 0.016503 0.237041 -0.971360
vn -0.020235 0.257406 -0.966091
vn 0.000000 -1.000000 0.000000
vn 0.000000 -1.000000 0.000000
vn 0.000000 -1.000000 0.000000
vn 0.000000 -1.000000 0.000000
vn 0.000000 -1.000000 -0.000000
vn 0.000000 -1.000000 -0.000000
vn 0.000000 -1.000000 -0.000000
vn 0.000000 -1.000000 -0.000000
vn -0.866679 0.206196 0.454259
vn -0.866679 0.206196 0.454259
vn -0.866679 0.206196 0.454259
vn -0.744024 0.175058 -0.644812
vn -0.744024 0.175058 -0.644812
vn -0.744024 0.175058 -0.644812
vn 0.000000 -1.000000 0.000000
vn 0.000000 -1.000000 0.000000
vn 0.000000 -1.000000 0.000000
vn 0.000000 -1.000000 0.000000
vn -0.868174 0.371998 0.328469
vn -0.868174 0.371998 0.328469
vn -0.868174 0.371998 0.328469
vn 0.000000 -1.000000 0.000000
vn 0.000000 -1.000000 0.000000
vn 0.000000 -1.000000 0.000000
vn 0.000000 -1.000000 0.000000
vn -0.812217 0.344726 -0.470605
vn -0.812217 0.344726 -0.470604
vn -0.812217 0.344726 -0.470604
vn -0.099693 0.347928 -0.932206
vn -0.099693 0.347928 -0.932206
vn -0.099693 0.347928 -0.932206
vn -0.099693 0.347928 -0.932206
vn -0.948521 0.127243 -0.290029
vn -0.948521 0.127243 -0.290029
vn -0.948521 0.127243 -0.290029
vn -0.948521 0.127243 -0.290029
vn -0.948521 0.127243 -0.290029
vn 0.079646 0.201005 -0.976347
vn 0.079646 0.201005 -0.976347
vn 0.079646 0.201005 -0.976347
vn -0.480284 0.147819 -0.864568
vn -0.480284 0.147819 -0.864568
vn -0.480284 0.147819 -0.864568
vn -0.480284 0.147819 -0.864568
vn 0.936970 0.209440 -0.279684
vn 0.936970 0.209440 -0.279684
vn 0.936969 0.209440 -0.279684
vn 0.684281 0.239317 0.688830
vn 0.684281 0.239317 0.688830
vn 0.684281 0.239317 0.688830
vn 0.227474 0.135022 0.964378
vn 0.227474 0.135022 0.964378
vn 0.227474 0.135022 0.964378
vn 0.227474 0.135022 0.964378
vn 0.934304 0.200998 0.294407
vn 0.934304 0.200998 0.294407
vn 0.934304 0.200998 0.294407
vn 0.934304 0.200998 0.294407
vn 0.056056 0.994989 0.082793
vn 0.056056 0.994989 0.082793
vn 0.056056 0.994989 0.082793
vn 0.056056 0.994989 0.082793
vn -0.415685 0.147786 0.897421
vn -0.415685 0.147786 0.897421
vn -0.415685 0.147786 0.897421
vn -0.415685 0.147786 0.897421
vn -0.982470 0.126968 0.136502
vn -0.982469 0.126968 0.136502
vn -0.982469 0.126968 0.136502
vn -0.982469 0.126968 0.136502
vn -0.982470 0.126968 0.136502
vn 0.292564 0.799523 0.524566
vn 0.292564 0.799523 0.524566
vn 0.292564 0.799523 0.524566
vn 0.292564 0.799523 0.524566
vn 0.292564 0.799523 0.524566
vn 0.292564 0.799523 0.524566
vn 0.292564 0.799523 0.524566
vn 0.292564 0.799523 0.524565
vn 0.441827 0.788200 -0.428403
vn 0.441827 0.788200 -0.428403
vn 0.441828 0.788200 -0.428402
vn 0.441827 0.788200 -0.428402
vn 0.441827 0.788200 -0.428402
vn 0.441827 0.788200 -0.428403
vn 0.441827 0.788200 -0.428402
vn -0.518124 0.636365 -0.571478
vn -0.518124 0.636365 -0.571478
vn -0.518124 0.636365 -0.571478
vn -0.518124 0.636365 -0.571478
vn -0.518124 0.636365 -0.571478
vn -0.518124 0.636365 -0.571478
vn -0.518124 0.636365 -0.571478
vn -0.374274 0.753098 0.541074
vn -0.374274 0.753098 0.541074
vn -0.374274 0.753098 0.541074
vn -0.374274 0.753098 0.541074
vn -0.374274 0.753099 0.541074
vn -0.374274 0.753099 0.541074
vn -0.374274 0.753099 0.541074
vn -0.431012 0.180359 0.884138
vn -0.431012 0.180359 0.884138
vn -0.431012 0.180359 0.884138
vn -0.431012 0.180359 0.884138
vn -0.431012 0.180359 0.884138
vn -0.660911 0.742532 0.108829
vn -0.660911 0.742532 0.108829
vn -0.660911 0.742532 0.108829
vn -0.660911 0.742532 0.108829
vn -0.660911 0.742532 0.108829
vn -0.949715 0.291255 0.114940
vn -0.949715 0.291255 0.114940
vn -0.949715 0.291255 0.114940
vn -0.949715 0.291255 0.114940
vn -0.949715 0.291255 0.114940
vn -0.689333 0.675038 -0.262951
vn -0.689333 0.675038 -0.262951
vn -0.689333 0.675038 -0.262951
vn -0.689333 0.675038 -0.262951
vn -0.689333 0.675038 -0.262951
vn -0.724868 0.311250 -0.614565
vn -0.724868 0.311250 -0.614565
vn -0.724868 0.311250 -0.614565
vn -0.724868 0.311250 -0.614565
vn -0.724868 0.311250 -0.614565
vn -0.869402 0.315336 -0.380399
vn -0.869402 0.315336 -0.380399
vn -0.869402 0.315336 -0.380399
vn -0.869402 0.315336 -0.380399
vn -0.869402 0.315336 -0.380399
s 1
g pCube1
usemtl initialShadingGroup
f 1/70/1 9/71/2 19/72/3 12/73/4
s off
f 38/76/5 36/83/6 37/86/7 35/77/8
s 2
f 14/87/9 15/88/10 10/89/11 4/90/12
s off
f 7/40/13 11/41/14 9/42/15 1/43/16
s 3
f 2/1/17 8/2/18 17/3/19 18/4/20
s off
f 4/44/21 10/45/22 11/41/23 7/40/24
s 4
f 16/5/25 17/3/26 8/2/27 5/6/28
s 5
f 18/74/29 19/72/30 9/71/31 2/75/32
s off
f 34/7/33 32/11/34 33/13/35 31/8/36
s 6
f 10/89/37 15/88/38 16/95/39 5/96/40
s off
f 11/41/41 10/45/42 5/50/43 8/46/44
f 9/42/45 11/41/46 8/46/47 2/47/48
f 43/15/49 44/16/50 42/17/51
f 25/23/52 26/22/53 24/33/54
f 7/40/55 1/43/56 22/48/57 21/49/58
f 51/34/59 49/26/60 50/25/61
f 4/44/62 7/40/63 21/49/64 23/51/65
f 53/28/66 52/27/67 54/39/68
f 30/93/69 28/97/70 27/98/71 29/94/72
f 14/21/73 13/19/74 6/18/75 26/22/76 25/23/77
s 6
f 16/95/39 15/88/38 29/94/78 27/98/79 3/99/80
s 2
f 25/91/81 24/92/82 30/93/83 29/94/84 15/88/10 14/87/9
s 4
f 32/11/85 34/7/86 17/3/26 16/5/25 3/12/87
s off
f 41/14/88 40/10/89 39/9/90
s 5
f 36/83/91 38/76/92 19/72/30 18/74/29 40/84/93 41/85/94
s 3
f 18/4/20 17/3/19 34/7/95 31/8/96 39/9/97 40/10/98
s off
f 48/52/99 47/53/100 46/54/101 45/55/102
s 1
f 12/73/4 19/72/3 38/76/103 35/77/104 42/78/105 44/79/106
s off
f 6/18/107 13/19/108 12/20/109 44/16/110 43/15/111
f 47/53/112 48/52/113 37/56/114 36/57/115 41/58/116 39/59/117 31/60/118 33/61/119
f 27/62/120 28/63/121 46/54/122 47/53/123 33/61/124 32/64/125 3/65/126
f 6/18/127 45/29/128 46/30/129 28/31/130 30/32/131 24/33/132 26/22/133
f 43/66/134 42/67/135 35/68/136 37/56/137 48/52/138 45/55/139 6/69/140
f 1/70/141 12/73/142 49/80/143 51/81/144 22/82/145
f 12/20/146 13/19/147 20/24/148 50/25/149 49/26/150
f 51/34/151 50/25/152 20/24/153 21/35/154 22/36/155
f 13/19/156 14/21/157 52/27/158 53/28/159 20/24/160
f 14/21/161 4/37/162 23/38/163 54/39/164 52/27/165
f 23/38/166 21/35/167 20/24/168 53/28/169 54/39/170
g default
v -0.879800 -0.661299 1.356090
v 1.622206 -0.661299 1.591987
v 0.552591 4.846437 -0.581909
v -1.066812 -0.661299 -1.595382
v 1.615001 -0.661299 -1.913598
v -0.454135 5.210421 0.038208
v -1.242867 -0.661299 -0.012605
v 2.225007 -0.661299 -0.028609
v 0.230922 -0.661299 1.971362
v 0.107935 -0.661299 -1.923742
v -0.047626 -0.661299 -0.012605
v -0.768926 1.740016 0.998126
v -0.967829 1.740016 -0.006734
v -0.648639 1.740016 -0.872656
v 0.090535 1.740016 -1.241859
v 1.068579 1.740015 -1.304054
v 1.393556 1.740016 -0.022032
v 1.134416 1.740016 0.972455
v -0.145350 1.740016 1.161162
v -1.281483 1.431077 -0.006734
v -2.002196 -0.661299 -0.012605
v -1.803292 -0.661299 0.983733
v -1.642096 -0.661299 -0.917052
v -0.208521 4.842609 -0.589427
v -0.522396 3.313718 -0.642333
v -0.470028 4.922329 -0.266041
v 0.193805 5.015882 -0.635637
v 0.088687 5.125653 -0.542612
v 0.080361 4.274292 -0.859476
v 0.023321 5.000846 -0.623017
v 0.629170 5.054322 0.154307
v 0.611520 5.049145 -0.156048
v 0.537806 5.180320 0.007229
v 0.899449 4.295304 -0.015398
v -0.194216 4.863394 0.687247
v 0.112994 4.875585 0.720077
v -0.065001 4.991389 0.597365
v -0.100411 4.089877 0.924549
v 0.609295 4.859241 0.465065
v 0.686384 4.061053 0.665796
v 0.476808 4.811400 0.613298
v -0.420454 4.851213 0.552153
v -0.487078 4.940159 0.384666
v -0.567231 4.074825 0.624531
v -0.154168 5.386763 -0.025836
v -0.002661 5.390625 -0.174831
v 0.109241 5.374152 -0.052624
v -0.056621 5.371244 0.094615
v -1.171131 1.434563 0.802091
v -1.299271 1.357328 0.550876
v -1.429723 0.834234 0.798493
v -0.758220 1.654270 -0.786701
v -1.106284 1.484354 -0.310444
v -1.304621 0.333547 -0.811119
vt 0.000000 0.018521
vt 0.171549 0.000000
vt 0.170480 0.254490
vt 0.067895 0.261177
vt 0.302520 0.263346
vt 0.368343 0.019335
vt 0.169126 0.514482
vt 0.153165 0.594478
vt 0.120716 0.576603
vt 0.096811 0.496740
vt 0.184475 0.594338
vt 0.229097 0.576441
vt 0.168342 0.609677
vt 0.100322 0.575388
vt 0.923314 0.669752
vt 0.949949 0.584043
vt 0.942053 0.662694
vt 0.888203 0.695815
vt 0.893840 0.343968
vt 0.997108 0.354049
vt 0.799786 0.350147
vt 0.859082 0.665729
vt 0.822170 0.506257
vt 0.896893 0.298902
vt 0.951693 0.292493
vt 0.977009 0.305819
vt 0.810824 0.338194
vt 0.864761 0.310708
vt 0.867626 0.725203
vt 0.846491 0.730079
vt 0.807259 0.703634
vt 0.803065 0.687590
vt 0.817578 0.662988
vt 0.977820 0.240027
vt 0.898637 0.078786
vt 1.000000 0.086563
vt 0.714097 0.110539
vt 0.801372 0.090101
vt 0.811043 0.195413
vt 0.362647 0.892072
vt 0.362647 0.772746
vt 0.560715 0.744938
vt 0.499290 0.855826
vt 0.204631 0.874496
vt 0.171850 0.757216
vt 0.361049 0.545859
vt 0.522840 0.606040
vt 0.462116 0.948022
vt 0.362647 0.967880
vt 0.172862 0.606759
vt 0.272352 0.931929
vt 0.349741 0.301198
vt 0.366680 0.314623
vt 0.356398 0.327788
vt 0.339240 0.312592
vt 0.353884 0.239113
vt 0.373053 0.223844
vt 0.410731 0.232190
vt 0.423525 0.248252
vt 0.423142 0.285118
vt 0.412431 0.303690
vt 0.395085 0.376710
vt 0.379929 0.367388
vt 0.426482 0.321168
vt 0.434192 0.368117
vt 0.306874 0.250913
vt 0.315384 0.232231
vt 0.340639 0.223515
vt 0.308390 0.295424
vt 0.462546 0.036038
vt 0.588105 0.025560
vt 0.537442 0.277617
vt 0.472766 0.278057
vt 0.666590 0.287662
vt 0.730727 0.044479
vt 0.531949 0.513718
vt 0.517558 0.592971
vt 0.491158 0.593355
vt 0.476801 0.514604
vt 0.425917 0.250870
vt 0.398661 0.191600
vt 0.363339 0.040780
vt 0.548665 0.595102
vt 0.614115 0.518484
vt 0.587148 0.592550
vt 0.528908 0.609827
vt 0.611182 0.639144
vt 0.693614 0.646459
vt 0.702301 0.896139
vt 0.580913 0.890790
vt 0.623779 0.480584
vt 0.663143 0.329320
vt 0.687950 0.314826
vt 0.694712 0.390712
vt 0.791718 0.646710
vt 0.852703 0.892117
vt 0.693920 0.299741
vt 0.705337 0.313562
vt 0.743518 0.328245
vn -0.401539 0.195443 0.894745
vn -0.401539 0.195443 0.894745
vn -0.407202 0.176822 0.896058
vn -0.407565 0.175606 0.896132
vn -0.113259 0.342888 0.932524
vn -0.113259 0.342888 0.932524
vn -0.113259 0.342888 0.932524
vn -0.113259 0.342888 0.932524
vn -0.396669 0.229202 -0.888887
vn -0.392595 0.232952 -0.889721
vn -0.327687 0.290297 -0.899082
vn -0.327687 0.290297 -0.899082
vn 0.000000 -1.000000 0.000000
vn 0.000000 -1.000000 0.000000
vn 0.000000 -1.000000 0.000000
vn 0.000000 -1.000000 0.000000
vn 0.909476 0.288084 0.299767
vn 0.909476 0.288084 0.299767
vn 0.920488 0.252918 0.297883
vn 0.920003 0.254563 0.297979
vn 0.000000 -1.000000 -0.000000
vn 0.000000 -1.000000 -0.000000
vn 0.000000 -1.000000 -0.000000
vn 0.000000 -1.000000 -0.000000
vn 0.924483 0.264985 -0.274071
vn 0.925286 0.261801 -0.274420
vn 0.915685 0.297390 -0.270334
vn 0.915685 0.297390 -0.270334
vn 0.210737 0.240444 0.947511
vn 0.212619 0.229458 0.949812
vn 0.197631 0.312188 0.929236
vn 0.197631 0.312188 0.929236
vn 0.923565 0.378899 -0.058844
vn 0.923565 0.378900 -0.058844
vn 0.923565 0.378899 -0.058844
vn 0.923565 0.378899 -0.058844
vn -0.020235 0.257406 -0.966091
vn 0.023216 0.233273 -0.972134
vn 0.016503 0.237041 -0.971360
vn -0.020235 0.257406 -0.966091
vn 0.000000 -1.000000 0.000000
vn 0.000000 -1.000000 0.000000
vn 0.000000 -1.000000 0.000000
vn 0.000000 -1.000000 0.000000
vn 0.000000 -1.000000 -0.000000
vn 0.000000 -1.000000 -0.000000
vn 0.000000 -1.000000 -0.000000
vn 0.000000 -1.000000 -0.000000
vn -0.866679 0.206196 0.454259
vn -0.866679 0.206196 0.454259
vn -0.866679 0.206196 0.454259
vn -0.744024 0.175058 -0.644812
vn -0.744024 0.175058 -0.644812
vn -0.744024 0.175058 -0.644812
vn 0.000000 -1.000000 0.000000
vn 0.000000 -1.000000 0.000000
vn 0.000000 -1.000000 0.000000
vn 0.000000 -1.000000 0.000000
vn -0.868174 0.371998 0.328469
vn -0.868174 0.371998 0.328469
vn -0.868174 0.371998 0.328469
vn 0.000000 -1.000000 0.000000
vn 0.000000 -1.000000 0.000000
vn 0.000000 -1.000000 0.000000
vn 0.000000 -1.000000 0.000000
vn -0.812217 0.344726 -0.470605
vn -0.812217 0.344726 -0.470604
vn -0.812217 0.344726 -0.470604
vn -0.099693 0.347928 -0.932206
vn -0.099693 0.347928 -0.932206
vn -0.099693 0.347928 -0.932206
vn -0.099693 0.347928 -0.932206
vn -0.948521 0.127243 -0.290029
vn -0.948521 0.127243 -0.290029
vn -0.948521 0.127243 -0.290029
vn -0.948521 0.127243 -0.290029
vn -0.948521 0.127243 -0.290029
vn 0.079646 0.201005 -0.976347
vn 0.079646 0.201005 -0.976347
vn 0.079646 0.201005 -0.976347
vn -0.480284 0.147819 -0.864568
vn -0.480284 0.147819 -0.864568
vn -0.480284 0.147819 -0.864568
vn -0.480284 0.147819 -0.864568
vn 0.936970 0.209440 -0.279684
vn 0.936970 0.209440 -0.279684
vn 0.936969 0.209440 -0.279684
vn 0.684281 0.239317 0.688830
vn 0.684281 0.239317 0.688830
vn 0.684281 0.239317 0.688830
vn 0.227474 0.135022 0.964378
vn 0.227474 0.135022 0.964378
vn 0.227474 0.135022 0.964378
vn 0.227474 0.135022 0.964378
vn 0.934304 0.200998 0.294407
vn 0.934304 0.200998 0.294407
vn 0.934304 0.200998 0.294407
vn 0.934304 0.200998 0.294407
vn 0.056056 0.994989 0.082793
vn 0.056056 0.994989 0.082793
vn 0.056056 0.994989 0.082793
vn 0.056056 0.994989 0.082793
vn -0.415685 0.147786 0.897421
vn -0.415685 0.147786 0.897421
vn -0.415685 0.147786 0.897421
vn -0.415685 0.147786 0.897421
vn -0.982470 0.126968 0.136502
vn -0.982469 0.126968 0.136502
vn -0.982469 0.126968 0.136502
vn -0.982469 0.126968 0.136502
vn -0.982470 0.126968 0.136502
vn 0.292564 0.799523 0.524566
vn 0.292564 0.799523 0.524566
vn 0.292564 0.799523 0.524566
vn 0.292564 0.799523 0.524566
vn 0.292564 0.799523 0.524566
vn 0.292564 0.799523 0.524566
vn 0.292564 0.799523 0.524566
vn 0.292564 0.799523 0.524565
vn 0.441827 0.788200 -0.428403
vn 0.441827 0.788200 -0.428403
vn 0.441828 0.788200 -0.428402
vn 0.441827 0.788200 -0.428402
vn 0.441827 0.788200 -0.428402
vn 0.441827 0.788200 -0.428403
vn 0.441827 0.788200 -0.428402
vn -0.518124 0.636365 -0.571478
vn -0.518124 0.636365 -0.571478
vn -0.518124 0.636365 -0.571478
vn -0.518124 0.636365 -0.571478
vn -0.518124 0.636365 -0.571478
vn -0.518124 0.636365 -0.571478
vn -0.518124 0.636365 -0.571478
vn -0.374274 0.753098 0.541074
vn -0.374274 0.753098 0.541074
vn -0.374274 0.753098 0.541074
vn -0.374274 0.753098 0.541074
vn -0.374274 0.753099 0.541074
vn -0.374274 0.753099 0.541074
vn -0.374274 0.753099 0.541074
vn -0.431012 0.180359 0.884138
vn -0.431012 0.180359 0.884138
vn -0.431012 0.180359 0.884138
vn -0.431012 0.180359 0.884138
vn -0.431012 0.180359 0.884138
vn -0.660911 0.742532 0.108829
vn -0.660911 0.742532 0.108829
vn -0.660911 0.742532 0.108829
vn -0.660911 0.742532 0.108829
vn -0.660911 0.742532 0.108829
vn -0.949715 0.291255 0.114940
vn -0.949715 0.291255 0.114940
vn -0.949715 0.291255 0.114940
vn -0.949715 0.291255 0.114940
vn -0.949715 0.291255 0.114940
vn -0.689333 0.675038 -0.262951
vn -0.689333 0.675038 -0.262951
vn -0.689333 0.675038 -0.262951
vn -0.689333 0.675038 -0.262951
vn -0.689333 0.675038 -0.262951
vn -0.724868 0.311250 -0.614565
vn -0.724868 0.311250 -0.614565
vn -0.724868 0.311250 -0.614565
vn -0.724868 0.311250 -0.614565
vn -0.724868 0.311250 -0.614565
vn -0.869402 0.315336 -0.380399
vn -0.869402 0.315336 -0.380399
vn -0.869402 0.315336 -0.380399
vn -0.869402 0.315336 -0.380399
vn -0.869402 0.315336 -0.380399
s 1
g pCube1
f 55/169/171 63/170/172 73/171/173 66/172/174
s off
f 92/175/175 90/182/176 91/185/177 89/176/178
s 2
f 68/186/179 69/187/180 64/188/181 58/189/182
s off
f 61/139/183 65/140/184 63/141/185 55/142/186
s 3
f 56/100/187 62/101/188 71/102/189 72/103/190
s off
f 58/143/191 64/144/192 65/140/193 61/139/194
s 4
f 70/104/195 71/102/196 62/101/197 59/105/198
s 5
f 72/173/199 73/171/200 63/170/201 56/174/202
s off
f 88/106/203 86/110/204 87/112/205 85/107/206
s 6
f 64/188/207 69/187/208 70/194/209 59/195/210
s off
f 65/140/211 64/144/212 59/149/213 62/145/214
f 63/141/215 65/140/216 62/145/217 56/146/218
f 97/114/219 98/115/220 96/116/221
f 79/122/222 80/121/223 78/132/224
f 61/139/225 55/142/226 76/147/227 75/148/228
f 105/133/229 103/125/230 104/124/231
f 58/143/232 61/139/233 75/148/234 77/150/235
f 107/127/236 106/126/237 108/138/238
f 84/192/239 82/196/240 81/197/241 83/193/242
f 68/120/243 67/118/244 60/117/245 80/121/246 79/122/247
s 6
f 70/194/209 69/187/208 83/193/248 81/197/249 57/198/250
s 2
f 79/190/251 78/191/252 84/192/253 83/193/254 69/187/180 68/186/179
s 4
f 86/110/255 88/106/256 71/102/196 70/104/195 57/111/257
s off
f 95/113/258 94/109/259 93/108/260
s 5
f 90/182/261 92/175/262 73/171/200 72/173/199 94/183/263 95/184/264
s 3
f 72/103/190 71/102/189 88/106/265 85/107/266 93/108/267 94/109/268
s off
f 102/151/269 101/152/270 100/153/271 99/154/272
s 1
f 66/172/174 73/171/173 92/175/273 89/176/274 96/177/275 98/178/276
s off
f 60/117/277 67/118/278 66/119/279 98/115/280 97/114/281
f 101/152/282 102/151/283 91/155/284 90/156/285 95/157/286 93/158/287 85/159/288 87/160/289
f 81/161/290 82/162/291 100/153/292 101/152/293 87/160/294 86/163/295 57/164/296
f 60/117/297 99/128/298 100/129/299 82/130/300 84/131/301 78/132/302 80/121/303
f 97/165/304 96/166/305 89/167/306 91/155/307 102/151/308 99/154/309 60/168/310
f 55/169/311 66/172/312 103/179/313 105/180/314 76/181/315
f 66/119/316 67/118/317 74/123/318 104/124/319 103/125/320
f 105/133/321 104/124/322 74/123/323 75/134/324 76/135/325
f 67/118/326 68/120/327 106/126/328 107/127/329 74/123/330
f 68/120/331 58/136/332 77/137/333 108/138/334 106/126/335
f 77/137/336 75/134/337 74/123/338 107/127/339 108/138/340
