# This file uses centimeters as units for non-parametric coordinates.

mtllib Tube_Thin.mtl
v 0.900451 0.191466 0.000541
v 0.840980 0.374498 0.000570
v 0.744755 0.541165 0.000602
v 0.615980 0.684184 0.000621
v 0.460284 0.797304 0.000641
v 0.284471 0.875581 0.000653
v 0.096226 0.915594 0.000662
v -0.096225 0.915594 0.000662
v -0.284471 0.875581 0.000653
v -0.460284 0.797304 0.000641
v -0.615980 0.684184 0.000621
v -0.744754 0.541165 0.000602
v -0.840980 0.374498 0.000570
v -0.900450 0.191466 0.000541
v -0.920567 0.000070 0.000511
v -0.900450 -0.191327 0.000481
v -0.840980 -0.374359 0.000452
v -0.744754 -0.541026 0.000421
v -0.615980 -0.684045 0.000402
v -0.460284 -0.797165 0.000381
v -0.284471 -0.875442 0.000369
v -0.096225 -0.915455 0.000361
v 0.096225 -0.915455 0.000361
v 0.284471 -0.875442 0.000369
v 0.460283 -0.797165 0.000381
v 0.615980 -0.684045 0.000402
v 0.744754 -0.541026 0.000421
v 0.840980 -0.374359 0.000452
v 0.900450 -0.191327 0.000481
v 0.920566 0.000069 0.000511
v 0.900451 0.191327 3.999519
v 0.840980 0.374359 3.999548
v 0.744755 0.541026 3.999579
v 0.615980 0.684046 3.999598
v 0.460284 0.797165 3.999619
v 0.284471 0.875442 3.999631
v 0.096226 0.915455 3.999639
v -0.096225 0.915455 3.999639
v -0.284471 0.875442 3.999631
v -0.460284 0.797165 3.999619
v -0.615980 0.684046 3.999598
v -0.744754 0.541026 3.999579
v -0.840980 0.374359 3.999548
v -0.900450 0.191327 3.999519
v -0.920567 -0.000069 3.999489
v -0.900450 -0.191466 3.999459
v -0.840980 -0.374498 3.999430
v -0.744754 -0.541165 3.999398
v -0.615980 -0.684184 3.999379
v -0.460284 -0.797304 3.999359
v -0.284471 -0.875581 3.999347
v -0.096225 -0.915593 3.999338
v 0.096225 -0.915593 3.999338
v 0.284471 -0.875580 3.999347
v 0.460283 -0.797304 3.999359
v 0.615980 -0.684184 3.999379
v 0.744754 -0.541165 3.999398
v 0.840980 -0.374498 3.999430
v 0.900450 -0.191466 3.999459
v 0.920566 -0.000069 3.999489
vt 0.000000 0.692636
vt 0.999994 0.692645
vt 1.000000 0.000009
vt 0.000006 0.000000
vt 0.266665 0.692659
vt 0.299998 0.692663
vt 0.233332 0.692654
vt 0.199999 0.692650
vt 0.166666 0.692645
vt 0.133332 0.692643
vt 0.099999 0.692640
vt 0.066666 0.692638
vt 0.033333 0.692636
vt 0.966661 0.692646
vt 0.933327 0.692647
vt 0.899994 0.692650
vt 0.866661 0.692652
vt 0.833328 0.692656
vt 0.799995 0.692660
vt 0.766662 0.692663
vt 0.733329 0.692667
vt 0.699996 0.692671
vt 0.666663 0.692675
vt 0.633329 0.692677
vt 0.599996 0.692680
vt 0.566663 0.692681
vt 0.533330 0.692682
vt 0.499997 0.692681
vt 0.466664 0.692680
vt 0.433331 0.692678
vt 0.399997 0.692675
vt 0.366664 0.692672
vt 0.333331 0.692667
vt 0.266671 0.000023
vt 0.300004 0.000027
vt 0.233338 0.000019
vt 0.200005 0.000014
vt 0.166672 0.000010
vt 0.133339 0.000007
vt 0.100006 0.000004
vt 0.066672 0.000002
vt 0.033339 0.000000
vt 0.966667 0.000010
vt 0.933334 0.000011
vt 0.900001 0.000014
vt 0.866668 0.000016
vt 0.833334 0.000020
vt 0.800001 0.000024
vt 0.766668 0.000027
vt 0.733335 0.000031
vt 0.700002 0.000035
vt 0.666669 0.000039
vt 0.633336 0.000041
vt 0.600002 0.000044
vt 0.566669 0.000045
vt 0.533336 0.000046
vt 0.500003 0.000046
vt 0.466670 0.000044
vt 0.433337 0.000042
vt 0.400004 0.000039
vt 0.366671 0.000036
vt 0.333337 0.000032
vn 0.978150 0.207901 0.000007
vn 0.913549 0.406729 0.000014
vn 0.913542 0.406745 0.000014
vn 0.978146 0.207917 0.000007
vn 0.809021 0.587779 0.000020
vn 0.809013 0.587790 0.000020
vn 0.669135 0.743141 0.000026
vn 0.669127 0.743148 0.000026
vn 0.500004 0.866023 0.000030
vn 0.499996 0.866028 0.000030
vn 0.309020 0.951056 0.000033
vn 0.309015 0.951057 0.000033
vn 0.104530 0.994522 0.000035
vn 0.104528 0.994522 0.000035
vn -0.104530 0.994522 0.000035
vn -0.104528 0.994522 0.000035
vn -0.309020 0.951056 0.000033
vn -0.309015 0.951057 0.000033
vn -0.500004 0.866023 0.000030
vn -0.499996 0.866028 0.000030
vn -0.669135 0.743141 0.000026
vn -0.669127 0.743148 0.000026
vn -0.809021 0.587779 0.000020
vn -0.809013 0.587790 0.000020
vn -0.913549 0.406729 0.000014
vn -0.913542 0.406744 0.000014
vn -0.978149 0.207904 0.000007
vn -0.978146 0.207920 0.000007
vn -1.000000 -0.000008 -0.000000
vn -1.000000 0.000008 -0.000000
vn -0.978146 -0.207920 -0.000007
vn -0.978149 -0.207904 -0.000007
vn -0.913542 -0.406744 -0.000014
vn -0.913549 -0.406729 -0.000014
vn -0.809013 -0.587790 -0.000020
vn -0.809021 -0.587779 -0.000020
vn -0.669127 -0.743148 -0.000026
vn -0.669135 -0.743141 -0.000026
vn -0.499996 -0.866028 -0.000030
vn -0.500004 -0.866023 -0.000030
vn -0.309014 -0.951057 -0.000033
vn -0.309020 -0.951056 -0.000033
vn -0.104527 -0.994522 -0.000035
vn -0.104530 -0.994522 -0.000035
vn 0.104528 -0.994522 -0.000034
vn 0.104530 -0.994522 -0.000034
vn 0.309015 -0.951057 -0.000033
vn 0.309020 -0.951055 -0.000033
vn 0.499996 -0.866028 -0.000030
vn 0.500004 -0.866023 -0.000030
vn 0.669127 -0.743149 -0.000026
vn 0.669134 -0.743141 -0.000026
vn 0.809013 -0.587791 -0.000020
vn 0.809021 -0.587779 -0.000020
vn 0.913542 -0.406744 -0.000014
vn 0.913549 -0.406729 -0.000014
vn 0.978146 -0.207919 -0.000007
vn 0.978149 -0.207903 -0.000007
vn 1.000000 -0.000011 -0.000000
vn 1.000000 0.000006 -0.000000
s 1
usemtl initialShadingGroup
f 1/35/1 2/62/2 32/33/3 31/6/4
f 2/62/2 3/61/5 33/32/6 32/33/3
f 3/61/5 4/60/7 34/31/8 33/32/6
f 4/60/7 5/59/9 35/30/10 34/31/8
f 5/59/9 6/58/11 36/29/12 35/30/10
f 6/58/11 7/57/13 37/28/14 36/29/12
f 7/57/13 8/56/15 38/27/16 37/28/14
f 8/56/15 9/55/17 39/26/18 38/27/16
f 9/55/17 10/54/19 40/25/20 39/26/18
f 10/54/19 11/53/21 41/24/22 40/25/20
f 11/53/21 12/52/23 42/23/24 41/24/22
f 12/52/23 13/51/25 43/22/26 42/23/24
f 13/51/25 14/50/27 44/21/28 43/22/26
f 14/50/27 15/49/29 45/20/30 44/21/28
f 15/49/29 16/48/31 46/19/32 45/20/30
f 16/48/31 17/47/33 47/18/34 46/19/32
f 17/47/33 18/46/35 48/17/36 47/18/34
f 18/46/35 19/45/37 49/16/38 48/17/36
f 19/45/37 20/44/39 50/15/40 49/16/38
f 20/44/39 21/43/41 51/14/42 50/15/40
f 21/43/41 22/3/43 52/2/44 51/14/42
f 22/4/43 23/42/45 53/13/46 52/1/44
f 23/42/45 24/41/47 54/12/48 53/13/46
f 24/41/47 25/40/49 55/11/50 54/12/48
f 25/40/49 26/39/51 56/10/52 55/11/50
f 26/39/51 27/38/53 57/9/54 56/10/52
f 27/38/53 28/37/55 58/8/56 57/9/54
f 28/37/55 29/36/57 59/7/58 58/8/56
f 29/36/57 30/34/59 60/5/60 59/7/58
f 30/34/59 1/35/1 31/6/4 60/5/60
