# This file uses centimeters as units for non-parametric coordinates.

mtllib Tube_Ring_LP.mtl
v 0.978149 0.207987 -0.099999
v 0.913546 0.406812 -0.099997
v 0.809018 0.587861 -0.099996
v 0.669131 0.743221 -0.099994
v 0.500001 0.866102 -0.099993
v 0.309017 0.951133 -0.099993
v 0.104529 0.994598 -0.099993
v -0.104528 0.994598 -0.099993
v -0.309017 0.951133 -0.099993
v -0.500000 0.866102 -0.099993
v -0.669131 0.743221 -0.099994
v -0.809017 0.587861 -0.099996
v -0.913546 0.406812 -0.099997
v -0.978148 0.207987 -0.099999
v -1.000000 0.000076 -0.100000
v -0.978148 -0.207836 -0.100002
v -0.913546 -0.406661 -0.100003
v -0.809017 -0.587710 -0.100004
v -0.669131 -0.743070 -0.100006
v -0.500000 -0.865950 -0.100006
v -0.309017 -0.950981 -0.100007
v -0.104529 -0.994447 -0.100007
v 0.104528 -0.994447 -0.100007
v 0.309017 -0.950981 -0.100007
v 0.500000 -0.865950 -0.100006
v 0.669131 -0.743070 -0.100006
v 0.809017 -0.587710 -0.100004
v 0.913546 -0.406661 -0.100003
v 0.978148 -0.207836 -0.100002
v 1.000000 0.000075 -0.100000
v 0.978149 0.207836 0.100002
v 0.913546 0.406661 0.100003
v 0.809018 0.587710 0.100004
v 0.669131 0.743070 0.100006
v 0.500001 0.865951 0.100006
v 0.309017 0.950982 0.100007
v 0.104529 0.994447 0.100008
v -0.104528 0.994447 0.100008
v -0.309017 0.950982 0.100007
v -0.500000 0.865951 0.100006
v -0.669131 0.743070 0.100006
v -0.809017 0.587710 0.100004
v -0.913546 0.406662 0.100003
v -0.978148 0.207837 0.100002
v -1.000000 -0.000075 0.100000
v -0.978148 -0.207987 0.099998
v -0.913546 -0.406812 0.099997
v -0.809017 -0.587861 0.099996
v -0.669131 -0.743221 0.099994
v -0.500000 -0.866101 0.099993
v -0.309017 -0.951132 0.099993
v -0.104529 -0.994598 0.099992
v 0.104528 -0.994598 0.099992
v 0.309017 -0.951132 0.099993
v 0.500000 -0.866101 0.099993
v 0.669131 -0.743220 0.099994
v 0.809017 -0.587861 0.099996
v 0.913546 -0.406812 0.099997
v 0.978148 -0.207987 0.099998
v 1.000000 -0.000075 0.100000
v 0.862458 0.183388 -0.099998
v 0.805497 0.358697 -0.099997
v 0.713331 0.518332 -0.099996
v 0.589990 0.655317 -0.099994
v 0.440863 0.763664 -0.099994
v 0.272468 0.838638 -0.099993
v 0.092166 0.876962 -0.099992
v -0.092165 0.876962 -0.099992
v -0.272468 0.838638 -0.099993
v -0.440863 0.763664 -0.099994
v -0.589990 0.655317 -0.099994
v -0.713331 0.518332 -0.099996
v -0.805497 0.358697 -0.099997
v -0.862458 0.183388 -0.099998
v -0.881726 0.000067 -0.100000
v -0.862458 -0.183254 -0.100002
v -0.805496 -0.358564 -0.100003
v -0.713331 -0.518199 -0.100004
v -0.589990 -0.655183 -0.100006
v -0.440863 -0.763530 -0.100006
v -0.272468 -0.838504 -0.100007
v -0.092165 -0.876829 -0.100008
v 0.092165 -0.876829 -0.100008
v 0.272468 -0.838504 -0.100007
v 0.440863 -0.763530 -0.100006
v 0.589989 -0.655183 -0.100006
v 0.713331 -0.518199 -0.100004
v 0.805496 -0.358563 -0.100003
v 0.862457 -0.183254 -0.100002
v 0.881725 0.000067 -0.100000
v 0.862458 0.183255 0.100002
v 0.805497 0.358564 0.100003
v 0.713331 0.518199 0.100004
v 0.589990 0.655184 0.100006
v 0.440863 0.763531 0.100006
v 0.272468 0.838505 0.100007
v 0.092166 0.876829 0.100008
v -0.092165 0.876829 0.100008
v -0.272468 0.838505 0.100007
v -0.440863 0.763531 0.100006
v -0.589990 0.655184 0.100006
v -0.713331 0.518199 0.100004
v -0.805497 0.358564 0.100003
v -0.862458 0.183255 0.100002
v -0.881726 -0.000066 0.100000
v -0.862458 -0.183387 0.099998
v -0.805496 -0.358696 0.099997
v -0.713331 -0.518332 0.099996
v -0.589990 -0.655316 0.099994
v -0.440863 -0.763663 0.099993
v -0.272468 -0.838637 0.099993
v -0.092165 -0.876962 0.099993
v 0.092165 -0.876962 0.099993
v 0.272468 -0.838637 0.099993
v 0.440863 -0.763663 0.099993
v 0.589989 -0.655316 0.099994
v 0.713331 -0.518332 0.099996
v 0.805496 -0.358696 0.099997
v 0.862457 -0.183387 0.099998
v 0.881725 -0.000066 0.100000
vt 0.797563 0.270317
vt 0.797544 0.303181
vt 0.763908 0.303137
vt 0.763926 0.270236
vt 0.797546 0.336045
vt 0.763910 0.336027
vt 0.797562 0.368907
vt 0.763924 0.368910
vt 0.797587 0.401769
vt 0.763952 0.401790
vt 0.797623 0.434631
vt 0.763988 0.434668
vt 0.797669 0.467493
vt 0.764034 0.467547
vt 0.797728 0.500355
vt 0.764093 0.500426
vt 0.797799 0.533217
vt 0.764164 0.533306
vt 0.797883 0.566079
vt 0.764248 0.566185
vt 0.797981 0.598941
vt 0.764346 0.599065
vt 0.798092 0.631804
vt 0.764458 0.631945
vt 0.798217 0.664667
vt 0.764583 0.664824
vt 0.798355 0.697531
vt 0.764720 0.697704
vt 0.798505 0.730394
vt 0.764870 0.730586
vt 0.798668 0.763258
vt 0.765033 0.763473
vt 0.798846 0.796123
vt 0.765212 0.796373
vt 0.799046 0.828990
vt 0.765422 0.829299
vt 0.799289 0.861868
vt 0.765693 0.862272
vt 0.799608 0.894783
vt 0.766086 0.895330
vt 0.800048 0.927822
vt 0.766669 0.928555
vt 0.800685 0.961235
vt 0.767348 0.962145
vt 0.802005 0.995755
vt 0.767595 0.003547
vt 0.800515 0.039469
vt 0.767148 0.038186
vt 0.799385 0.072894
vt 0.766006 0.071835
vt 0.798620 0.105941
vt 0.765141 0.105142
vt 0.798162 0.138845
vt 0.764570 0.138312
vt 0.797876 0.171720
vt 0.764249 0.171374
vt 0.797707 0.204587
vt 0.764071 0.204368
vt 0.797612 0.237453
vt 0.763974 0.237317
vt 0.817320 0.270418
vt 0.817301 0.303261
vt 0.817302 0.336110
vt 0.817318 0.368963
vt 0.817344 0.401817
vt 0.817379 0.434672
vt 0.817426 0.467527
vt 0.817485 0.500382
vt 0.817556 0.533237
vt 0.817639 0.566091
vt 0.817737 0.598945
vt 0.817849 0.631800
vt 0.817973 0.664656
vt 0.818111 0.697510
vt 0.818262 0.730363
vt 0.818425 0.763213
vt 0.818603 0.796056
vt 0.818799 0.828883
vt 0.819034 0.861684
vt 0.819331 0.894441
vt 0.819759 0.927114
vt 0.820507 0.959561
vt 0.822240 0.991227
vt 0.820074 0.041487
vt 0.818990 0.073905
vt 0.818315 0.106534
vt 0.817894 0.139232
vt 0.817627 0.171982
vt 0.817463 0.204771
vt 0.817369 0.237586
vt 0.850936 0.303255
vt 0.850955 0.270440
vt 0.850937 0.336086
vt 0.850953 0.368928
vt 0.850979 0.401775
vt 0.851015 0.434623
vt 0.851061 0.467471
vt 0.851120 0.500318
vt 0.851191 0.533164
vt 0.851275 0.566010
vt 0.851372 0.598854
vt 0.851481 0.631697
vt 0.851608 0.664540
vt 0.851746 0.697382
vt 0.851897 0.730221
vt 0.852060 0.763053
vt 0.852238 0.795866
vt 0.852444 0.828642
vt 0.852672 0.861341
vt 0.852964 0.893888
vt 0.853393 0.926151
vt 0.854163 0.957938
vt 0.855844 0.012477
vt 0.853793 0.043598
vt 0.852558 0.075179
vt 0.851891 0.107264
vt 0.851499 0.139654
vt 0.851250 0.172225
vt 0.851095 0.204905
vt 0.851003 0.237651
vt 0.822264 0.010013
vt 0.747117 0.006414
vt 0.747011 0.993112
vt 0.855675 0.989129
vt 0.744224 0.237206
vt 0.744174 0.270150
vt 0.744324 0.204217
vt 0.744507 0.171158
vt 0.744838 0.138000
vt 0.745416 0.104733
vt 0.746283 0.071443
vt 0.747330 0.038433
vt 0.747818 0.961513
vt 0.766992 0.996453
vt 0.747043 0.928632
vt 0.746381 0.895494
vt 0.745955 0.862395
vt 0.745672 0.829379
vt 0.745459 0.796426
vt 0.745279 0.763510
vt 0.745116 0.730613
vt 0.744967 0.697723
vt 0.744829 0.664835
vt 0.744705 0.631948
vt 0.744593 0.599061
vt 0.744495 0.566174
vt 0.744411 0.533286
vt 0.744340 0.500399
vt 0.744282 0.467513
vt 0.744235 0.434628
vt 0.744199 0.401743
vt 0.744172 0.368857
vt 0.744157 0.335967
vt 0.744156 0.303067
vt 0.802552 0.005271
vn 0.978138 0.207957 0.000157
vn 0.913527 0.406778 0.000307
vn 0.913564 0.406695 0.000307
vn 0.978158 0.207862 0.000157
vn 0.808993 0.587818 0.000443
vn 0.809041 0.587753 0.000443
vn 0.669106 0.743167 0.000561
vn 0.669155 0.743123 0.000561
vn 0.499979 0.866038 0.000653
vn 0.500022 0.866013 0.000653
vn 0.309003 0.951061 0.000717
vn 0.309032 0.951051 0.000717
vn 0.104523 0.994522 0.000750
vn 0.104534 0.994521 0.000750
vn -0.104523 0.994522 0.000750
vn -0.104534 0.994521 0.000750
vn -0.309002 0.951061 0.000717
vn -0.309032 0.951051 0.000717
vn -0.499979 0.866038 0.000653
vn -0.500022 0.866013 0.000653
vn -0.669106 0.743167 0.000561
vn -0.669155 0.743122 0.000561
vn -0.808994 0.587818 0.000443
vn -0.809041 0.587753 0.000443
vn -0.913527 0.406778 0.000307
vn -0.913564 0.406695 0.000307
vn -0.978137 0.207959 0.000157
vn -0.978158 0.207864 0.000157
vn -1.000000 0.000050 0.000000
vn -1.000000 -0.000050 0.000000
vn -0.978158 -0.207864 -0.000157
vn -0.978138 -0.207959 -0.000157
vn -0.913564 -0.406695 -0.000307
vn -0.913527 -0.406778 -0.000307
vn -0.809041 -0.587753 -0.000443
vn -0.808993 -0.587818 -0.000443
vn -0.669155 -0.743123 -0.000561
vn -0.669106 -0.743167 -0.000561
vn -0.500021 -0.866013 -0.000653
vn -0.499978 -0.866038 -0.000653
vn -0.309031 -0.951052 -0.000717
vn -0.309002 -0.951061 -0.000717
vn -0.104534 -0.994521 -0.000750
vn -0.104523 -0.994522 -0.000750
vn 0.104534 -0.994521 -0.000750
vn 0.104523 -0.994522 -0.000750
vn 0.309032 -0.951051 -0.000717
vn 0.309002 -0.951061 -0.000717
vn 0.500022 -0.866013 -0.000653
vn 0.499978 -0.866038 -0.000653
vn 0.669155 -0.743122 -0.000561
vn 0.669106 -0.743167 -0.000561
vn 0.809041 -0.587753 -0.000443
vn 0.808993 -0.587818 -0.000443
vn 0.913564 -0.406695 -0.000307
vn 0.913527 -0.406778 -0.000307
vn 0.978158 -0.207864 -0.000157
vn 0.978138 -0.207959 -0.000157
vn 1.000000 0.000047 -0.000000
vn 1.000000 -0.000052 -0.000000
vn -0.000002 0.000008 -1.000000
vn -0.000002 0.000008 -1.000000
vn -0.000002 0.000008 -1.000000
vn -0.000002 0.000008 -1.000000
vn -0.000003 0.000006 -1.000000
vn -0.000003 0.000006 -1.000000
vn -0.000003 0.000006 -1.000000
vn -0.000003 0.000006 -1.000000
vn -0.000004 0.000005 -1.000000
vn -0.000004 0.000005 -1.000000
vn -0.000004 0.000005 -1.000000
vn -0.000004 0.000005 -1.000000
vn -0.000003 0.000003 -1.000000
vn -0.000003 0.000003 -1.000000
vn -0.000003 0.000003 -1.000000
vn -0.000003 0.000003 -1.000000
vn -0.000003 0.000001 -1.000000
vn -0.000003 0.000001 -1.000000
vn -0.000003 0.000001 -1.000000
vn -0.000003 0.000001 -1.000000
vn -0.000003 -0.000001 -1.000000
vn -0.000003 -0.000001 -1.000000
vn -0.000003 -0.000001 -1.000000
vn -0.000003 -0.000001 -1.000000
vn 0.000000 -0.000002 -1.000000
vn 0.000000 -0.000002 -1.000000
vn 0.000000 -0.000002 -1.000000
vn 0.000000 -0.000002 -1.000000
vn 0.000003 -0.000001 -1.000000
vn 0.000003 -0.000001 -1.000000
vn 0.000003 -0.000001 -1.000000
vn 0.000003 -0.000001 -1.000000
vn 0.000003 0.000001 -1.000000
vn 0.000003 0.000001 -1.000000
vn 0.000003 0.000001 -1.000000
vn 0.000003 0.000001 -1.000000
vn 0.000003 0.000003 -1.000000
vn 0.000003 0.000003 -1.000000
vn 0.000003 0.000003 -1.000000
vn 0.000003 0.000003 -1.000000
vn 0.000004 0.000005 -1.000000
vn 0.000004 0.000005 -1.000000
vn 0.000004 0.000005 -1.000000
vn 0.000004 0.000005 -1.000000
vn 0.000003 0.000006 -1.000000
vn 0.000003 0.000006 -1.000000
vn 0.000003 0.000006 -1.000000
vn 0.000003 0.000006 -1.000000
vn 0.000002 0.000008 -1.000000
vn 0.000002 0.000008 -1.000000
vn 0.000002 0.000008 -1.000000
vn 0.000002 0.000008 -1.000000
vn 0.000001 0.000007 -1.000000
vn 0.000001 0.000007 -1.000000
vn 0.000001 0.000007 -1.000000
vn 0.000001 0.000007 -1.000000
vn -0.000000 0.000009 -1.000000
vn -0.000000 0.000009 -1.000000
vn -0.000000 0.000009 -1.000000
vn -0.000000 0.000009 -1.000000
vn -0.000002 0.000007 -1.000000
vn -0.000002 0.000007 -1.000000
vn -0.000002 0.000007 -1.000000
vn -0.000002 0.000007 -1.000000
vn -0.000004 0.000006 -1.000000
vn -0.000004 0.000006 -1.000000
vn -0.000004 0.000006 -1.000000
vn -0.000004 0.000006 -1.000000
vn -0.000004 0.000005 -1.000000
vn -0.000004 0.000005 -1.000000
vn -0.000004 0.000005 -1.000000
vn -0.000004 0.000005 -1.000000
vn -0.000003 0.000001 -1.000000
vn -0.000003 0.000001 -1.000000
vn -0.000003 0.000001 -1.000000
vn -0.000003 0.000001 -1.000000
vn -0.000004 0.000000 -1.000000
vn -0.000004 0.000000 -1.000000
vn -0.000004 0.000000 -1.000000
vn -0.000004 0.000000 -1.000000
vn -0.000003 -0.000001 -1.000000
vn -0.000003 -0.000001 -1.000000
vn -0.000003 -0.000001 -1.000000
vn -0.000003 -0.000001 -1.000000
vn 0.000000 -0.000002 -1.000000
vn 0.000000 -0.000002 -1.000000
vn 0.000000 -0.000002 -1.000000
vn 0.000000 -0.000002 -1.000000
vn 0.000003 -0.000001 -1.000000
vn 0.000003 -0.000001 -1.000000
vn 0.000003 -0.000001 -1.000000
vn 0.000003 -0.000001 -1.000000
vn 0.000004 0.000001 -1.000000
vn 0.000004 0.000001 -1.000000
vn 0.000004 0.000001 -1.000000
vn 0.000004 0.000001 -1.000000
vn 0.000003 0.000001 -1.000000
vn 0.000003 0.000001 -1.000000
vn 0.000003 0.000001 -1.000000
vn 0.000003 0.000001 -1.000000
vn 0.000004 0.000005 -1.000000
vn 0.000004 0.000005 -1.000000
vn 0.000004 0.000005 -1.000000
vn 0.000004 0.000005 -1.000000
vn 0.000004 0.000006 -1.000000
vn 0.000004 0.000006 -1.000000
vn 0.000004 0.000006 -1.000000
vn 0.000004 0.000006 -1.000000
vn 0.000002 0.000007 -1.000000
vn 0.000002 0.000007 -1.000000
vn 0.000002 0.000007 -1.000000
vn 0.000002 0.000007 -1.000000
vn 0.000000 0.000009 -1.000000
vn 0.000000 0.000009 -1.000000
vn 0.000000 0.000009 -1.000000
vn 0.000000 0.000009 -1.000000
vn -0.000001 0.000007 -1.000000
vn -0.000001 0.000007 -1.000000
vn -0.000001 0.000007 -1.000000
vn -0.000001 0.000007 -1.000000
vn 0.000001 -0.000006 1.000000
vn 0.000001 -0.000006 1.000000
vn 0.000001 -0.000006 1.000000
vn 0.000001 -0.000006 1.000000
vn 0.000003 -0.000006 1.000000
vn 0.000003 -0.000006 1.000000
vn 0.000003 -0.000006 1.000000
vn 0.000003 -0.000006 1.000000
vn 0.000004 -0.000005 1.000000
vn 0.000004 -0.000005 1.000000
vn 0.000004 -0.000005 1.000000
vn 0.000004 -0.000005 1.000000
vn 0.000003 -0.000003 1.000000
vn 0.000003 -0.000003 1.000000
vn 0.000003 -0.000003 1.000000
vn 0.000003 -0.000003 1.000000
vn 0.000003 -0.000002 1.000000
vn 0.000003 -0.000002 1.000000
vn 0.000003 -0.000002 1.000000
vn 0.000003 -0.000002 1.000000
vn 0.000002 -0.000001 1.000000
vn 0.000002 -0.000001 1.000000
vn 0.000002 -0.000001 1.000000
vn 0.000002 -0.000001 1.000000
vn 0.000000 -0.000000 1.000000
vn 0.000000 -0.000000 1.000000
vn 0.000000 -0.000000 1.000000
vn 0.000000 -0.000000 1.000000
vn -0.000002 -0.000001 1.000000
vn -0.000002 -0.000001 1.000000
vn -0.000002 -0.000001 1.000000
vn -0.000002 -0.000001 1.000000
vn -0.000003 -0.000002 1.000000
vn -0.000003 -0.000002 1.000000
vn -0.000003 -0.000002 1.000000
vn -0.000003 -0.000002 1.000000
vn -0.000003 -0.000003 1.000000
vn -0.000003 -0.000003 1.000000
vn -0.000003 -0.000003 1.000000
vn -0.000003 -0.000003 1.000000
vn -0.000004 -0.000005 1.000000
vn -0.000004 -0.000005 1.000000
vn -0.000004 -0.000005 1.000000
vn -0.000004 -0.000005 1.000000
vn -0.000003 -0.000006 1.000000
vn -0.000003 -0.000006 1.000000
vn -0.000003 -0.000006 1.000000
vn -0.000003 -0.000006 1.000000
vn -0.000001 -0.000006 1.000000
vn -0.000001 -0.000006 1.000000
vn -0.000001 -0.000006 1.000000
vn -0.000001 -0.000006 1.000000
vn -0.000000 -0.000009 1.000000
vn -0.000000 -0.000009 1.000000
vn -0.000000 -0.000009 1.000000
vn -0.000000 -0.000009 1.000000
vn 0.000001 -0.000008 1.000000
vn 0.000001 -0.000008 1.000000
vn 0.000001 -0.000008 1.000000
vn 0.000001 -0.000008 1.000000
vn 0.000002 -0.000007 1.000000
vn 0.000002 -0.000007 1.000000
vn 0.000002 -0.000007 1.000000
vn 0.000002 -0.000007 1.000000
vn 0.000003 -0.000006 1.000000
vn 0.000003 -0.000006 1.000000
vn 0.000003 -0.000006 1.000000
vn 0.000003 -0.000006 1.000000
vn 0.000004 -0.000005 1.000000
vn 0.000004 -0.000005 1.000000
vn 0.000004 -0.000005 1.000000
vn 0.000004 -0.000005 1.000000
vn 0.000004 -0.000003 1.000000
vn 0.000004 -0.000003 1.000000
vn 0.000004 -0.000003 1.000000
vn 0.000004 -0.000003 1.000000
vn 0.000003 -0.000001 1.000000
vn 0.000003 -0.000001 1.000000
vn 0.000003 -0.000001 1.000000
vn 0.000003 -0.000001 1.000000
vn 0.000002 -0.000001 1.000000
vn 0.000002 -0.000001 1.000000
vn 0.000002 -0.000001 1.000000
vn 0.000002 -0.000001 1.000000
vn 0.000000 -0.000001 1.000000
vn 0.000000 -0.000001 1.000000
vn 0.000000 -0.000001 1.000000
vn 0.000000 -0.000001 1.000000
vn -0.000002 -0.000001 1.000000
vn -0.000002 -0.000001 1.000000
vn -0.000002 -0.000001 1.000000
vn -0.000002 -0.000001 1.000000
vn -0.000003 -0.000001 1.000000
vn -0.000003 -0.000001 1.000000
vn -0.000003 -0.000001 1.000000
vn -0.000003 -0.000001 1.000000
vn -0.000004 -0.000003 1.000000
vn -0.000004 -0.000003 1.000000
vn -0.000004 -0.000003 1.000000
vn -0.000004 -0.000003 1.000000
vn -0.000004 -0.000005 1.000000
vn -0.000004 -0.000005 1.000000
vn -0.000004 -0.000005 1.000000
vn -0.000004 -0.000005 1.000000
vn -0.000003 -0.000006 1.000000
vn -0.000003 -0.000006 1.000000
vn -0.000003 -0.000006 1.000000
vn -0.000003 -0.000006 1.000000
vn -0.000002 -0.000007 1.000000
vn -0.000002 -0.000007 1.000000
vn -0.000002 -0.000007 1.000000
vn -0.000002 -0.000007 1.000000
vn -0.000001 -0.000008 1.000000
vn -0.000001 -0.000008 1.000000
vn -0.000001 -0.000008 1.000000
vn -0.000001 -0.000008 1.000000
vn 0.000000 -0.000009 1.000000
vn 0.000000 -0.000009 1.000000
vn 0.000000 -0.000009 1.000000
vn 0.000000 -0.000009 1.000000
vn -0.913529 -0.406773 -0.000271
vn -0.978139 -0.207951 -0.000138
vn -0.978157 -0.207868 -0.000138
vn -0.913562 -0.406700 -0.000271
vn -1.000000 -0.000041 0.000000
vn -1.000000 0.000046 0.000000
vn -0.978157 0.207870 0.000138
vn -0.978139 0.207953 0.000138
vn -0.913562 0.406700 0.000271
vn -0.913529 0.406773 0.000271
vn -0.809038 0.587756 0.000391
vn -0.808996 0.587813 0.000391
vn -0.669152 0.743125 0.000494
vn -0.669109 0.743164 0.000494
vn -0.500019 0.866014 0.000576
vn -0.499981 0.866036 0.000576
vn -0.309030 0.951052 0.000633
vn -0.309004 0.951061 0.000633
vn -0.104533 0.994521 0.000661
vn -0.104524 0.994522 0.000661
vn 0.104533 0.994521 0.000661
vn 0.104524 0.994522 0.000661
vn 0.309029 0.951052 0.000633
vn 0.309004 0.951061 0.000633
vn 0.500019 0.866014 0.000576
vn 0.499981 0.866036 0.000576
vn 0.669152 0.743125 0.000494
vn 0.669109 0.743164 0.000494
vn 0.809038 0.587756 0.000391
vn 0.808996 0.587814 0.000391
vn 0.913562 0.406700 0.000270
vn 0.913529 0.406773 0.000271
vn 0.978157 0.207870 0.000138
vn 0.978139 0.207954 0.000138
vn 1.000000 -0.000044 -0.000000
vn 1.000000 0.000044 -0.000000
vn 0.978139 -0.207954 -0.000139
vn 0.978157 -0.207870 -0.000138
vn 0.913529 -0.406773 -0.000271
vn 0.913562 -0.406700 -0.000270
vn 0.808996 -0.587814 -0.000391
vn 0.809038 -0.587757 -0.000391
vn 0.669109 -0.743164 -0.000494
vn 0.669152 -0.743125 -0.000494
vn 0.499981 -0.866036 -0.000576
vn 0.500019 -0.866014 -0.000576
vn 0.309004 -0.951060 -0.000633
vn 0.309030 -0.951052 -0.000633
vn 0.104524 -0.994522 -0.000662
vn 0.104533 -0.994521 -0.000662
vn -0.104524 -0.994522 -0.000662
vn -0.104533 -0.994521 -0.000662
vn -0.309004 -0.951060 -0.000633
vn -0.309030 -0.951052 -0.000633
vn -0.499981 -0.866036 -0.000576
vn -0.500019 -0.866014 -0.000576
vn -0.669109 -0.743164 -0.000494
vn -0.669152 -0.743125 -0.000494
vn -0.808996 -0.587814 -0.000391
vn -0.809038 -0.587757 -0.000391
s 1
usemtl initialShadingGroup
f 1/1/1 2/2/2 32/3/3 31/4/4
f 2/2/2 3/5/5 33/6/6 32/3/3
f 3/5/5 4/7/7 34/8/8 33/6/6
f 4/7/7 5/9/9 35/10/10 34/8/8
f 5/9/9 6/11/11 36/12/12 35/10/10
f 6/11/11 7/13/13 37/14/14 36/12/12
f 7/13/13 8/15/15 38/16/16 37/14/14
f 8/15/15 9/17/17 39/18/18 38/16/16
f 9/17/17 10/19/19 40/20/20 39/18/18
f 10/19/19 11/21/21 41/22/22 40/20/20
f 11/21/21 12/23/23 42/24/24 41/22/22
f 12/23/23 13/25/25 43/26/26 42/24/24
f 13/25/25 14/27/27 44/28/28 43/26/26
f 14/27/27 15/29/29 45/30/30 44/28/28
f 15/29/29 16/31/31 46/32/32 45/30/30
f 16/31/31 17/33/33 47/34/34 46/32/32
f 17/33/33 18/35/35 48/36/36 47/34/34
f 18/35/35 19/37/37 49/38/38 48/36/36
f 19/37/37 20/39/39 50/40/40 49/38/38
f 20/39/39 21/41/41 51/42/42 50/40/40
f 21/41/41 22/43/43 52/44/44 51/42/42
f 22/43/43 23/45/45 53/134/46 52/44/44
f 23/155/45 24/47/47 54/48/48 53/46/46
f 24/47/47 25/49/49 55/50/50 54/48/48
f 25/49/49 26/51/51 56/52/52 55/50/50
f 26/51/51 27/53/53 57/54/54 56/52/52
f 27/53/53 28/55/55 58/56/56 57/54/54
f 28/55/55 29/57/57 59/58/58 58/56/56
f 29/57/57 30/59/59 60/60/60 59/58/58
f 30/59/59 1/1/1 31/4/4 60/60/60
s off
f 2/2/61 1/1/62 61/61/63 62/62/64
f 3/5/65 2/2/66 62/62/67 63/63/68
f 4/7/69 3/5/70 63/63/71 64/64/72
f 5/9/73 4/7/74 64/64/75 65/65/76
f 6/11/77 5/9/78 65/65/79 66/66/80
f 7/13/81 6/11/82 66/66/83 67/67/84
f 8/15/85 7/13/86 67/67/87 68/68/88
f 9/17/89 8/15/90 68/68/91 69/69/92
f 10/19/93 9/17/94 69/69/95 70/70/96
f 11/21/97 10/19/98 70/70/99 71/71/100
f 12/23/101 11/21/102 71/71/103 72/72/104
f 13/25/105 12/23/106 72/72/107 73/73/108
f 14/27/109 13/25/110 73/73/111 74/74/112
f 15/29/113 14/27/114 74/74/115 75/75/116
f 16/31/117 15/29/118 75/75/119 76/76/120
f 17/33/121 16/31/122 76/76/123 77/77/124
f 18/35/125 17/33/126 77/77/127 78/78/128
f 19/37/129 18/35/130 78/78/131 79/79/132
f 20/39/133 19/37/134 79/79/135 80/80/136
f 21/41/137 20/39/138 80/80/139 81/81/140
f 22/43/141 21/41/142 81/81/143 82/82/144
f 23/45/145 22/43/146 82/82/147 83/83/148
f 24/47/149 23/155/150 83/121/151 84/84/152
f 25/49/153 24/47/154 84/84/155 85/85/156
f 26/51/157 25/49/158 85/85/159 86/86/160
f 27/53/161 26/51/162 86/86/163 87/87/164
f 28/55/165 27/53/166 87/87/167 88/88/168
f 29/57/169 28/55/170 88/88/171 89/89/172
f 30/59/173 29/57/174 89/89/175 90/90/176
f 1/1/177 30/59/178 90/90/179 61/61/180
f 31/4/181 32/3/182 92/154/183 91/126/184
f 32/3/185 33/6/186 93/153/187 92/154/188
f 33/6/189 34/8/190 94/152/191 93/153/192
f 34/8/193 35/10/194 95/151/195 94/152/196
f 35/10/197 36/12/198 96/150/199 95/151/200
f 36/12/201 37/14/202 97/149/203 96/150/204
f 37/14/205 38/16/206 98/148/207 97/149/208
f 38/16/209 39/18/210 99/147/211 98/148/212
f 39/18/213 40/20/214 100/146/215 99/147/216
f 40/20/217 41/22/218 101/145/219 100/146/220
f 41/22/221 42/24/222 102/144/223 101/145/224
f 42/24/225 43/26/226 103/143/227 102/144/228
f 43/26/229 44/28/230 104/142/231 103/143/232
f 44/28/233 45/30/234 105/141/235 104/142/236
f 45/30/237 46/32/238 106/140/239 105/141/240
f 46/32/241 47/34/242 107/139/243 106/140/244
f 47/34/245 48/36/246 108/138/247 107/139/248
f 48/36/249 49/38/250 109/137/251 108/138/252
f 49/38/253 50/40/254 110/136/255 109/137/256
f 50/40/257 51/42/258 111/135/259 110/136/260
f 51/42/261 52/44/262 112/133/263 111/135/264
f 52/44/265 53/134/266 113/123/267 112/133/268
f 53/46/269 54/48/270 114/132/271 113/122/272
f 54/48/273 55/50/274 115/131/275 114/132/276
f 55/50/277 56/52/278 116/130/279 115/131/280
f 56/52/281 57/54/282 117/129/283 116/130/284
f 57/54/285 58/56/286 118/128/287 117/129/288
f 58/56/289 59/58/290 119/127/291 118/128/292
f 59/58/293 60/60/294 120/125/295 119/127/296
f 60/60/297 31/4/298 91/126/299 120/125/300
s 2
f 62/62/301 61/61/302 91/92/303 92/91/304
f 61/61/302 90/90/305 120/120/306 91/92/303
f 90/90/305 89/89/307 119/119/308 120/120/306
f 89/89/307 88/88/309 118/118/310 119/119/308
f 88/88/309 87/87/311 117/117/312 118/118/310
f 87/87/311 86/86/313 116/116/314 117/117/312
f 86/86/313 85/85/315 115/115/316 116/116/314
f 85/85/315 84/84/317 114/114/318 115/115/316
f 84/84/317 83/121/319 113/113/320 114/114/318
f 83/83/319 82/82/321 112/112/322 113/124/320
f 82/82/321 81/81/323 111/111/324 112/112/322
f 81/81/323 80/80/325 110/110/326 111/111/324
f 80/80/325 79/79/327 109/109/328 110/110/326
f 79/79/327 78/78/329 108/108/330 109/109/328
f 78/78/329 77/77/331 107/107/332 108/108/330
f 77/77/331 76/76/333 106/106/334 107/107/332
f 76/76/333 75/75/335 105/105/336 106/106/334
f 75/75/335 74/74/337 104/104/338 105/105/336
f 74/74/337 73/73/339 103/103/340 104/104/338
f 73/73/339 72/72/341 102/102/342 103/103/340
f 72/72/341 71/71/343 101/101/344 102/102/342
f 71/71/343 70/70/345 100/100/346 101/101/344
f 70/70/345 69/69/347 99/99/348 100/100/346
f 69/69/347 68/68/349 98/98/350 99/99/348
f 68/68/349 67/67/351 97/97/352 98/98/350
f 67/67/351 66/66/353 96/96/354 97/97/352
f 66/66/353 65/65/355 95/95/356 96/96/354
f 65/65/355 64/64/357 94/94/358 95/95/356
f 64/64/357 63/63/359 93/93/360 94/94/358
f 63/63/359 62/62/301 92/91/304 93/93/360
