# This file uses centimeters as units for non-parametric coordinates.

mtllib Button_LP.mtl
v 0.338604 0.100167 -0.586479
v 0.677208 0.100167 0.000000
v 0.338604 0.100167 0.586479
v -0.338604 0.100167 0.586479
v -0.677208 0.100167 -0.000000
v -0.338604 0.100167 -0.586479
v 0.461226 0.043011 -0.798866
v -0.461225 0.043011 -0.798866
v -0.922451 0.043011 -0.000000
v -0.461226 0.043011 0.798866
v 0.461226 0.043011 0.798866
v 0.922451 0.043011 0.000000
v 0.470446 0.001954 -0.814836
v -0.470445 0.001954 -0.814836
v -0.940891 0.001954 -0.000000
v -0.470446 0.001954 0.814836
v 0.470446 0.001954 0.814836
v 0.940891 0.001954 -0.000000
v 0.330440 0.035319 -0.572339
v -0.330440 0.035319 -0.572339
v -0.660880 0.035319 -0.000000
v -0.330440 0.035319 0.572339
v 0.330440 0.035319 0.572339
v 0.660880 0.035319 -0.000000
v 0.334602 0.100167 -0.579547
v 0.330440 0.092985 -0.572339
v -0.334604 0.100167 -0.579544
v -0.330440 0.092985 -0.572339
v -0.669201 0.100167 0.000004
v -0.660880 0.092985 -0.000000
v -0.334600 0.100167 0.579543
v -0.330440 0.092985 0.572339
v 0.334600 0.100167 0.579544
v 0.330440 0.092985 0.572339
v 0.669201 0.100167 0.000004
v 0.660880 0.092985 -0.000000
vt 0.854618 0.485441
vt 0.730037 0.871872
vt 0.994602 0.994846
vt 0.854570 0.485475
vt 0.994677 0.994846
vt 0.854615 0.485444
vt 0.994608 0.994846
vt 0.854593 0.485462
vt 0.854587 0.485466
vt 0.994650 0.994846
vt 0.727992 0.869728
vt 0.854553 0.485485
vt 0.134650 0.897840
vt 0.136691 0.899912
vt 0.136691 0.899918
vt 0.136691 0.899958
vt 0.136691 0.899945
vt 0.136691 0.899949
vt 0.850195 0.914224
vt 0.843722 0.490639
vt 0.843657 0.490686
vt 0.850171 0.914202
vt 0.850125 0.914181
vt 0.843674 0.490676
vt 0.850182 0.914216
vt 0.843719 0.490642
vt 0.850130 0.914180
vt 0.843696 0.490661
vt 0.850163 0.914199
vt 0.843691 0.490665
vt 0.806996 0.490632
vt 0.806932 0.490691
vt 0.806949 0.490678
vt 0.806993 0.490636
vt 0.806971 0.490660
vt 0.806966 0.490665
vt 0.843652 0.911530
vt 0.806926 0.911524
vt 0.843714 0.911574
vt 0.806989 0.911579
vt 0.850203 0.487989
vt 0.854611 0.916772
vt 0.850175 0.488012
vt 0.854547 0.916731
vt 0.994668 0.407373
vt 0.735908 0.899896
vt 0.140519 0.869783
vt 0.735908 0.899929
vt 0.730036 0.871867
vt 0.994694 0.994847
vt 0.994705 0.407373
vt 0.730033 0.871827
vt 0.994659 0.994846
vt 0.730034 0.871840
vt 0.142559 0.871901
vt 0.730033 0.871836
vt 0.843691 0.911554
vt 0.806965 0.911554
vt 0.843684 0.911549
vt 0.806958 0.911548
vt 0.843702 0.911564
vt 0.806977 0.911567
vt 0.843647 0.911528
vt 0.806921 0.911521
vt 0.850155 0.488027
vt 0.854542 0.916729
vt 0.850200 0.487995
vt 0.854599 0.916763
vt 0.850170 0.488016
vt 0.854580 0.916749
vt 0.850136 0.488033
vt 0.854586 0.916753
vt 0.142560 0.871893
vt 0.994616 0.407373
vt 0.733867 0.897784
vt 0.994661 0.407373
vt 0.142561 0.871888
vt 0.735908 0.899891
vt 0.994700 0.407373
vt 0.142563 0.871862
vt 0.735908 0.899883
vt 0.994638 0.407373
vt 0.142564 0.871856
vt 0.735908 0.899923
vn 0.112023 0.974578 -0.194030
vn 0.113488 0.973900 -0.196567
vn -0.113488 0.973900 -0.196567
vn -0.112023 0.974578 -0.194030
vn -0.226977 0.973900 -0.000000
vn -0.224047 0.974578 -0.000000
vn -0.113488 0.973900 0.196567
vn -0.112023 0.974579 0.194030
vn 0.112023 0.974579 0.194030
vn 0.113488 0.973900 0.196568
vn 0.226977 0.973900 0.000000
vn 0.224047 0.974578 0.000000
vn 0.000000 0.362499 -0.931984
vn 0.000000 0.362499 -0.931984
vn 0.000000 0.362499 -0.931984
vn 0.000000 0.362499 -0.931984
vn -0.807121 0.362500 -0.465992
vn -0.807122 0.362500 -0.465992
vn -0.807121 0.362500 -0.465992
vn -0.807121 0.362500 -0.465992
vn -0.807121 0.362501 0.465992
vn -0.807121 0.362501 0.465992
vn -0.807121 0.362501 0.465991
vn -0.807121 0.362501 0.465991
vn 0.807122 0.362500 0.465992
vn 0.807122 0.362500 0.465992
vn 0.807122 0.362500 0.465992
vn 0.807122 0.362500 0.465992
vn -0.000000 0.362502 0.931983
vn -0.000000 0.362502 0.931983
vn -0.000000 0.362502 0.931983
vn -0.000000 0.362502 0.931983
vn 0.807121 0.362502 -0.465991
vn 0.807121 0.362502 -0.465991
vn 0.807121 0.362502 -0.465991
vn 0.807121 0.362502 -0.465991
vn -0.611342 0.708296 0.352956
vn -0.611342 0.708296 0.352956
vn -0.611342 0.708296 0.352956
vn -0.611342 0.708296 0.352956
vn 0.000002 0.708296 0.705916
vn 0.000002 0.708296 0.705916
vn 0.000002 0.708296 0.705916
vn 0.000002 0.708296 0.705916
vn 0.611341 0.708297 0.352956
vn 0.611341 0.708297 0.352956
vn 0.611341 0.708297 0.352956
vn 0.611341 0.708297 0.352956
vn 0.611340 0.708296 -0.352959
vn 0.611340 0.708296 -0.352959
vn 0.611340 0.708296 -0.352959
vn 0.611340 0.708296 -0.352959
vn 0.000000 0.708201 -0.706011
vn 0.000000 0.708201 -0.706011
vn 0.000000 0.708201 -0.706011
vn 0.000000 0.708201 -0.706011
vn -0.611338 0.708298 -0.352959
vn -0.611338 0.708298 -0.352959
vn -0.611338 0.708298 -0.352958
vn -0.611338 0.708298 -0.352959
vn 0.000002 1.000000 0.000000
vn 0.000001 1.000000 0.000002
vn -0.000001 1.000000 0.000002
vn -0.000002 1.000000 -0.000000
vn -0.000001 1.000000 -0.000002
vn 0.000001 1.000000 -0.000002
vn -0.866026 0.000000 0.500000
vn -0.866026 0.000000 0.500000
vn -0.866026 0.000000 0.500000
vn -0.866026 0.000000 0.500000
vn -0.000000 0.000000 1.000000
vn -0.000000 0.000000 1.000000
vn -0.000000 0.000000 1.000000
vn -0.000000 0.000000 1.000000
vn 0.866025 0.000000 0.500000
vn 0.866025 0.000000 0.500000
vn 0.866025 0.000000 0.500000
vn 0.866025 0.000000 0.500000
vn 0.866026 0.000000 -0.500000
vn 0.866026 0.000000 -0.500000
vn 0.866026 0.000000 -0.500000
vn 0.866026 0.000000 -0.500000
vn 0.000000 0.000000 -1.000000
vn 0.000000 0.000000 -1.000000
vn 0.000000 0.000000 -1.000000
vn 0.000000 0.000000 -1.000000
vn -0.866025 0.000000 -0.500000
vn -0.866025 0.000000 -0.500000
vn -0.866025 0.000000 -0.500000
vn -0.866025 0.000000 -0.500000
s 1
usemtl aiStandardSurface1SG
f 1/1/1 7/51/2 8/3/3 6/66/4
f 6/4/4 8/82/3 9/5/5 5/68/6
f 5/6/6 9/79/5 10/7/7 4/44/8
f 3/9/9 11/76/10 12/53/11 2/72/12
f 2/12/12 12/74/11 7/50/2 1/42/1
f 11/10/10 3/70/9 4/8/8 10/45/7
s off
f 7/2/13 13/48/14 14/14/15 8/83/16
f 8/49/17 14/84/18 15/15/19 9/80/20
f 9/52/21 15/81/22 16/16/23 10/55/24
f 11/56/25 17/78/26 18/18/27 12/73/28
f 16/46/29 17/17/30 11/77/31 10/54/32
f 7/47/33 12/11/34 18/75/35 13/13/36
f 25/19/37 26/39/38 36/21/39 35/71/40
f 27/23/41 28/63/42 26/20/43 25/41/44
f 29/25/45 30/61/46 28/24/47 27/65/48
f 31/27/49 32/37/50 30/26/51 29/67/52
f 33/29/53 34/59/54 32/28/55 31/43/56
f 34/30/57 33/69/58 35/22/59 36/57/60
s 1
f 35/22/61 33/69/62 3/9/9 2/72/12
f 5/6/6 4/44/8 31/27/63 29/67/64
f 4/8/8 3/70/9 33/29/62 31/43/63
f 6/4/4 5/68/6 29/25/64 27/65/65
f 2/12/12 1/42/1 25/19/66 35/71/61
f 1/1/1 6/66/4 27/23/65 25/41/66
s off
f 36/21/67 26/39/68 19/40/69 24/32/70
f 26/20/71 28/63/72 20/64/73 19/31/74
f 28/24/75 30/61/76 21/62/77 20/33/78
f 30/26/79 32/37/80 22/38/81 21/34/82
f 32/28/83 34/59/84 23/60/85 22/35/86
f 24/58/87 23/36/88 34/30/89 36/57/90
v 0.330440 0.018806 -0.572339
v -0.330440 0.018806 -0.572339
v -0.660880 0.018806 -0.000000
v -0.330440 0.018806 0.572339
v 0.330440 0.018806 0.572339
v 0.660880 0.018806 -0.000000
v 0.318276 0.124157 -0.551270
v 0.330440 0.103089 -0.572339
v -0.318276 0.124157 -0.551271
v -0.330440 0.103089 -0.572339
v -0.636552 0.124157 -0.000000
v -0.660880 0.103089 -0.000000
v -0.318276 0.124157 0.551270
v -0.330440 0.103089 0.572339
v 0.318276 0.124157 0.551270
v 0.330440 0.103089 0.572339
v 0.636552 0.124157 -0.000000
v 0.660880 0.103089 -0.000000
vt 0.230809 0.025943
vt 0.214212 0.786253
vt 0.214212 0.786253
vt 0.636958 0.025833
vt 0.027841 0.377722
vt 0.214217 0.786210
vt 0.214212 0.786253
vt 0.840124 0.377517
vt 0.214217 0.786210
vt 0.637135 0.729303
vt 0.214217 0.786210
vt 0.230987 0.729398
vt 0.214222 0.839930
vt 0.214222 0.839929
vt 0.214222 0.839930
vt 0.214216 0.839887
vt 0.214216 0.839887
vt 0.214216 0.839887
vt 0.635110 0.839853
vt 0.006843 0.377681
vt 0.635100 0.786176
vt 0.635105 0.839895
vt 0.861121 0.377558
vt 0.635106 0.786218
vt 0.220451 0.747561
vt 0.647598 0.747508
vt 0.647492 0.007669
vt 0.220345 0.007739
vt 0.635105 0.839895
vt 0.635106 0.786218
vt 0.635105 0.839895
vt 0.635106 0.786218
vt 0.635101 0.786176
vt 0.635110 0.839853
vt 0.635110 0.839853
vt 0.635101 0.786176
vn 0.000000 0.707107 -0.707107
vn 0.000000 0.707107 -0.707107
vn 0.000000 0.707107 -0.707107
vn 0.000000 0.707107 -0.707107
vn 0.612373 0.707106 -0.353554
vn 0.612373 0.707106 -0.353554
vn 0.612373 0.707106 -0.353554
vn 0.612373 0.707106 -0.353554
vn -0.612373 0.707106 -0.353554
vn -0.612373 0.707106 -0.353554
vn -0.612373 0.707106 -0.353554
vn -0.612373 0.707106 -0.353554
vn -0.612373 0.707106 0.353553
vn -0.612373 0.707106 0.353553
vn -0.612373 0.707106 0.353553
vn -0.612373 0.707106 0.353553
vn 0.000000 0.707107 0.707107
vn 0.000000 0.707107 0.707107
vn 0.000000 0.707107 0.707107
vn 0.000000 0.707107 0.707107
vn 0.612373 0.707106 0.353554
vn 0.612373 0.707106 0.353554
vn 0.612373 0.707106 0.353554
vn 0.612373 0.707106 0.353554
vn 0.000000 1.000000 0.000000
vn 0.000000 1.000000 0.000000
vn 0.000000 1.000000 0.000000
vn 0.000000 1.000000 0.000000
vn 0.000000 1.000000 0.000000
vn 0.000000 1.000000 0.000000
vn 0.000000 0.000000 -1.000000
vn 0.000000 0.000000 -1.000000
vn 0.000000 0.000000 -1.000000
vn 0.000000 0.000000 -1.000000
vn -0.866025 0.000000 -0.500000
vn -0.866025 0.000000 -0.500000
vn -0.866025 0.000000 -0.500000
vn -0.866025 0.000000 -0.500000
vn -0.866025 0.000000 0.500000
vn -0.866025 0.000000 0.500000
vn -0.866025 0.000000 0.500000
vn -0.866025 0.000000 0.500000
vn 0.000000 0.000000 1.000000
vn 0.000000 0.000000 1.000000
vn 0.000000 0.000000 1.000000
vn 0.000000 0.000000 1.000000
vn 0.866025 0.000000 0.500000
vn 0.866025 0.000000 0.500000
vn 0.866025 0.000000 0.500000
vn 0.866025 0.000000 0.500000
vn 0.866026 0.000000 -0.500000
vn 0.866026 0.000000 -0.500000
vn 0.866026 0.000000 -0.500000
vn 0.866026 0.000000 -0.500000
s off
f 43/85/91 44/112/92 46/111/93 45/88/94
f 44/112/95 43/85/96 53/89/97 54/104/98
f 45/88/99 46/111/100 48/107/101 47/92/102
f 47/92/103 48/107/104 50/110/105 49/94/106
f 49/94/107 50/110/108 52/109/109 51/96/110
f 51/96/111 52/109/112 54/104/113 53/89/114
f 43/85/115 45/88/116 47/92/117 49/94/118 51/96/119 53/89/120
f 37/118/121 38/98/122 46/87/123 44/117/124
f 38/119/125 39/99/126 48/91/127 46/120/128
f 39/106/129 40/100/130 50/93/131 48/108/132
f 40/115/133 41/101/134 52/95/135 50/116/136
f 41/113/137 42/102/138 54/90/139 52/114/140
f 42/103/141 37/97/142 44/86/143 54/105/144
